<svg xmlns="http://www.w3.org/2000/svg" version="1.1" xmlns:xlink="http://www.w3.org/1999/xlink" width="1500"
     height="220" viewBox="0 0 1500 220">
  <svg xml:space="preserve" width="1500" height="220" data-version="2" data-id="lg_4saLe12p5XQBdZgPfg" viewBox="0 0 811 220" x="0" y="0"><rect width="100%" height="100%" fill="transparent"></rect><g
    transform="translate(91.92 107.77)"><linearGradient id="a" x1="0" x2="3.44" y1="0" y2="0" gradientUnits="objectBoundingBox"><stop offset="0%" stop-color="#4bc6ff"></stop><stop
    offset="100%" stop-color="#5546ff"></stop></linearGradient>
    <path fill="url(#a)"
          d="M109.83 432.62q0 4.32-1.8 5.97-1.8 1.66-6.12 1.66H71.23q-4.32 0-6.12-1.66-1.8-1.65-1.8-5.97v-64.97l-28.67-33.27q-10.22-11.96-17.21-21.46-6.99-9.51-10.44-19.67-3.46-10.15-3.46-23.83v-12.68q0-4.18 1.44-6.34 6.48-9.5 18.15-20.02 2.16-1.73 3.89-1.73t3.6 1.73q6.34 5.47 10.66 10.44t7.49 9.58q1.44 2.31 1.44 6.34v12.53q0 9.36 5.47 20.74 5.48 11.38 18.44 25.07l13.97 14.69 13.69-14.69q11.67-12.53 17.79-23.91 6.12-11.38 6.12-21.75v-12.68q0-4.18 1.44-6.34 6.19-9.36 17.57-20.02 2.16-1.73 3.6-1.73 1.73 0 3.6 1.73 6.05 5.47 10.3 10.44 4.25 4.97 7.28 9.58 1.44 2.31 1.44 6.34v12.68q0 15.84-6.92 30.32-6.91 14.47-23.47 32.91l-30.69 34.14Z"
          transform="translate(-87.22 -334.45)"></path></g><rect width="167.38" height="211.6" x="-83.69" y="-105.8"
                                                                 fill="none" rx="0" ry="0"
                                                                 transform="translate(92.42 108.27)"></rect><g
    transform="translate(282.78 110.29)"><linearGradient id="b" x1="-1.01" x2="2.48" y1="0" y2="0" gradientUnits="objectBoundingBox"><stop offset="0%" stop-color="#4bc6ff"></stop><stop
    offset="100%" stop-color="#5546ff"></stop></linearGradient>
    <path fill="url(#b)"
          d="M280.81 371.25q-3.74 0-6.33-1.87-2.74-1.87-6.49-5.33-3.74-3.46-8.35-8.5-1.73-2.01-1.73-3.6 0-1.58 1.73-3.6 8.93-10.08 16.28-14.84 1.72-1.15 4.89-1.15 9.8 0 16.93-7.34 7.13-7.35 6.84-23.77-.14-17.72-8.71-24.78-8.58-7.05-23.41-7.05h-6.92q-9.5 0-12.96 4.03-3.46 4.03-3.46 13.83v145.34q0 4.32-1.8 5.97-1.8 1.66-6.12 1.66h-30.68q-4.32 0-6.12-1.66-1.8-1.65-1.8-5.97V272.3q0-14.41 2.66-22.83 2.67-8.43 10.37-12.1 7.71-3.68 22.55-3.68h34.28q41.34 0 61.22 16.21 19.87 16.2 19.87 49.62 0 25.06-10.44 40.91-10.44 15.84-27.08 23.33-16.64 7.49-35.22 7.49"
          transform="translate(-278.07 -336.97)"></path></g><rect width="150.95" height="206.56" x="-75.47" y="-103.28"
                                                                  fill="none" rx="0" ry="0"
                                                                  transform="translate(283.28 110.79)"></rect><g
    transform="translate(506.12 110.29)"><linearGradient id="c" x1="-1.32" x2=".63" y1="0" y2="0" gradientUnits="objectBoundingBox"><stop offset="0%" stop-color="#4bc6ff"></stop><stop
    offset="100%" stop-color="#5546ff"></stop></linearGradient>
    <path fill="url(#c)"
          d="M502.21 357.57q2.01-7.78 4.39-15.34t5.83-16.93q3.03-8.35 7.35-19.23 4.32-10.87 9.15-22.11 4.82-11.23 9.43-20.88 4.61-9.65 8.36-15.41 4.61-7.06 10.01-10.52 5.4-3.46 15.91-3.46h18.87q7.49 0 12.61 2.24 5.11 2.23 7.27 10.58 1.59 6.2 3.03 18.15 1.44 11.96 2.45 33.13 1 21.18 1.58 54.38.58 33.2.58 82.03 0 2.59-1.73 4.32-1.73 1.73-4.18 1.73h-32.84q-2.45 0-4.18-1.73-1.73-1.73-1.73-4.46v-64.53q0-26.51-.14-43.94-.15-17.43-.36-27.73-.22-10.29-.65-15.91h-.86q-7.64 17.57-16.28 39.11-8.64 21.53-16.85 44.36T524.53 410q-1.87 6.48-4.68 9-2.81 2.53-12.75 2.53h-16.56q-8.5 0-11.31-2.17-2.81-2.16-4.82-9.36-4.76-16.42-10.52-34.71-5.76-18.3-11.88-35.94-6.12-17.65-11.81-32.56-5.69-14.9-10.16-24.84h-.86q-1.16 16.99-2.02 41.34-.86 24.34-1.37 52.86-.5 28.52-.65 58.19 0 2.6-1.72 4.25-1.73 1.66-4.18 1.66h-29.53q-2.45 0-4.18-1.73-1.73-1.73-1.73-4.46.15-76.78 3.1-122.58 2.95-45.81 6.41-61.37 2.31-10.22 8.14-13.32 5.83-3.1 13.32-3.1h23.34q7.92 0 11.59 2.81 3.68 2.81 9.01 10.88 3.17 4.75 7.56 14.26 4.39 9.5 9.15 21.1 4.75 11.6 9 22.9 4.25 11.31 6.98 19.66 2.88 8.5 5.33 16.5 2.45 7.99 4.32 15.77Z"
          transform="translate(-501.42 -336.97)"></path></g><rect width="235.23" height="206.56" x="-117.61" y="-103.28"
                                                                  fill="none" rx="0" ry="0"
                                                                  transform="translate(506.62 110.79)"></rect><g
    transform="translate(729.95 110.44)"><linearGradient id="d" x1="-3.81" x2=".03" y1="0" y2="0" gradientUnits="objectBoundingBox"><stop offset="0%" stop-color="#4bc6ff"></stop><stop
    offset="100%" stop-color="#5546ff"></stop></linearGradient>
    <path fill="url(#d)"
          d="M719.57 443.71q-18.3 0-30.32-3.32-12.03-3.31-19.3-8.28-7.28-4.97-11.17-9.86-1.29-1.88-2.3-3.61-1.01-1.72-1.44-3.88-.58-2.89-1.16-7.57-.57-4.68-.14-10.87.14-2.6 1.01-3.6 1.01-1.16 3.31-1.73 4.18-1.01 10.88-1.8 6.69-.79 9.58-.79 3.02 0 4.89 1.15 1.88 1.15 4.47 3.89 2.88 3.02 9.94 7.7t21.75 4.68q14.11 0 21.32-5.9 7.2-5.91 7.2-16.42 0-5.62-3.39-10.59-3.38-4.97-12.31-9.94t-25.5-10.44q-27.37-9.22-39.47-22.9-12.1-13.69-12.1-38.03 0-20.17 9.8-33.71 9.79-13.54 27.08-20.45 17.28-6.92 39.9-6.92 17.43 0 28.88 4.11 11.45 4.1 17.79 9.22 6.34 5.11 8.21 8.28 1.15 1.87 1.51 2.81.36.94.51 2.52.43 4.47.28 9.94-.14 5.47-1 12.39-.44 2.3-1.59 3.17-1.01.72-3.17.72-13.97.28-21.6-1.44-3.03-.72-4.04-1.44-1-.73-2.59-2.31-2.3-2.74-7.27-6.41t-15.92-3.67q-15.12 0-21.46 6.84-6.34 6.84-6.34 15.34 0 10.08 9.36 15.77 9.36 5.69 29.53 12.89 16.85 5.91 28.95 12.82 12.1 6.92 18.51 17.72 6.41 10.8 6.41 28.52 0 22.04-10.15 36.59-10.16 14.55-27.66 21.68-17.5 7.13-39.68 7.13"
          transform="translate(-725.25 -337.12)"></path></g><rect width="143.63" height="213.19" x="-71.81" y="-106.59"
                                                                  fill="none" rx="0" ry="0"
                                                                  transform="translate(730.45 110.94)"></rect></svg>
</svg>
